<svg width="355" height="403" viewBox="0 0 355 403" fill="none" xmlns="http://www.w3.org/2000/svg">
<path fill-rule="evenodd" clip-rule="evenodd" d="M351.493 115.575L192.497 389.827C187.761 397.98 179.025 403 169.571 403C160.118 403 151.381 397.98 146.646 389.827L102.54 314.031C97.7998 305.859 97.7998 295.786 102.54 287.613L261.41 13.1732C266.146 5.02021 274.882 0 284.336 0C293.789 0 302.526 5.02021 307.261 13.1732L351.409 89.1575C356.167 97.3173 356.199 107.385 351.493 115.575ZM150.031 141.846C154.723 133.678 154.696 123.639 149.96 115.496C145.225 107.353 136.497 102.339 127.052 102.335H26.4156C16.9824 102.361 8.27495 107.384 3.55473 115.523C-1.16549 123.662 -1.18612 133.688 3.50056 141.846L53.7454 229.269C58.4585 237.484 67.2271 242.554 76.7235 242.554C86.2199 242.554 94.9885 237.484 99.7016 229.269L150.031 141.846Z" fill="#0F8BFD"/>
</svg>
